<svg alt="logo" class="h-12 block transition-all duration-200 ease-in" viewBox="0 0 830 219" fill="none">
    <path
        d="M259.764 107.569C261.467 107.838 263.014 108.531 264.403 109.65C265.837 110.769 266.957 112.156 267.764 113.812C268.615 115.468 269.041 117.235 269.041 119.115C269.041 121.487 268.436 123.635 267.226 125.559C266.016 127.439 264.246 128.938 261.916 130.057C259.63 131.131 256.919 131.668 253.782 131.668H236.304V84.8802H253.109C256.291 84.8802 259.003 85.4172 261.243 86.4913C263.484 87.5206 265.165 88.9302 266.285 90.7203C267.405 92.5103 267.966 94.5241 267.966 96.7617C267.966 99.5362 267.204 101.841 265.68 103.676C264.201 105.466 262.229 106.764 259.764 107.569ZM242.421 105.085H252.706C255.574 105.085 257.793 104.414 259.361 103.072C260.93 101.729 261.714 99.8719 261.714 97.5001C261.714 95.1283 260.93 93.2711 259.361 91.9285C257.793 90.586 255.529 89.9147 252.572 89.9147H242.421V105.085ZM253.244 126.633C256.291 126.633 258.667 125.917 260.369 124.485C262.072 123.053 262.924 121.062 262.924 118.511C262.924 115.915 262.028 113.879 260.235 112.402C258.442 110.881 256.045 110.12 253.042 110.12H242.421V126.633H253.244Z"
        fill="black"></path>
    <path d="M283.647 81.9938V131.668H277.53V81.9938H283.647Z" fill="black"></path>
    <path
        d="M326.743 94.8821V131.668H320.626V126.23C319.461 128.11 317.825 129.587 315.719 130.661C313.657 131.69 311.372 132.205 308.862 132.205C305.994 132.205 303.417 131.623 301.131 130.459C298.846 129.251 297.031 127.461 295.686 125.089C294.387 122.717 293.737 119.831 293.737 116.43V94.8821H299.787V115.624C299.787 119.249 300.706 122.046 302.543 124.015C304.38 125.939 306.89 126.902 310.072 126.902C313.343 126.902 315.92 125.895 317.802 123.881C319.685 121.867 320.626 118.936 320.626 115.087V94.8821H326.743Z"
        fill="black"></path>
    <path
        d="M370.683 111.865C370.683 113.029 370.615 114.259 370.481 115.557H341.038C341.262 119.182 342.494 122.024 344.735 124.082C347.02 126.096 349.777 127.103 353.003 127.103C355.647 127.103 357.843 126.499 359.591 125.291C361.384 124.038 362.638 122.382 363.355 120.323H369.943C368.957 123.859 366.985 126.745 364.028 128.983C361.07 131.175 357.395 132.272 353.003 132.272C349.508 132.272 346.371 131.489 343.592 129.922C340.858 128.356 338.707 126.141 337.139 123.277C335.57 120.368 334.786 117.012 334.786 113.208C334.786 109.404 335.548 106.07 337.072 103.206C338.595 100.342 340.724 98.149 343.458 96.6274C346.236 95.0611 349.418 94.278 353.003 94.278C356.499 94.278 359.591 95.0388 362.28 96.5603C364.969 98.0818 367.03 100.185 368.464 102.87C369.943 105.511 370.683 108.509 370.683 111.865ZM364.364 110.59C364.364 108.263 363.848 106.271 362.818 104.616C361.787 102.915 360.375 101.64 358.583 100.789C356.835 99.8943 354.885 99.4467 352.734 99.4467C349.642 99.4467 346.998 100.431 344.802 102.4C342.651 104.369 341.419 107.099 341.105 110.59H364.364Z"
        fill="black"></path>
    <path
        d="M411.535 132.137C408.443 132.137 405.664 131.6 403.199 130.526C400.779 129.408 398.875 127.886 397.485 125.962C396.096 123.993 395.379 121.733 395.334 119.182H401.855C402.079 121.375 402.975 123.232 404.544 124.754C406.157 126.23 408.487 126.969 411.535 126.969C414.448 126.969 416.733 126.253 418.391 124.821C420.094 123.344 420.946 121.464 420.946 119.182C420.946 117.392 420.453 115.938 419.467 114.819C418.481 113.7 417.249 112.85 415.77 112.268C414.291 111.686 412.297 111.06 409.787 110.388C406.695 109.583 404.208 108.777 402.325 107.972C400.488 107.166 398.897 105.913 397.553 104.213C396.253 102.467 395.603 100.14 395.603 97.2316C395.603 94.6807 396.253 92.4208 397.553 90.4518C398.852 88.4827 400.667 86.9612 402.998 85.8871C405.373 84.8131 408.084 84.2761 411.131 84.2761C415.523 84.2761 419.108 85.3725 421.887 87.5653C424.71 89.7581 426.301 92.6669 426.66 96.2918H419.938C419.713 94.5017 418.772 92.9354 417.114 91.5929C415.456 90.2056 413.26 89.512 410.526 89.512C407.972 89.512 405.888 90.1833 404.275 91.5258C402.661 92.8236 401.855 94.6584 401.855 97.0302C401.855 98.7307 402.325 100.118 403.266 101.192C404.252 102.266 405.44 103.094 406.829 103.676C408.263 104.213 410.258 104.839 412.812 105.555C415.904 106.406 418.391 107.256 420.274 108.106C422.156 108.912 423.769 110.187 425.114 111.932C426.458 113.633 427.13 115.96 427.13 118.914C427.13 121.196 426.525 123.344 425.315 125.358C424.105 127.371 422.313 129.005 419.938 130.258C417.562 131.511 414.761 132.137 411.535 132.137Z"
        fill="black"></path>
    <path
        d="M456.702 131.668L442.25 115.423V131.668H436.132V81.9938H442.25V111.194L456.433 94.8821H464.971L447.627 113.208L465.038 131.668H456.702Z"
        fill="black"></path>
    <path
        d="M502.457 94.8821L480.274 148.986H473.955L481.215 131.265L466.359 94.8821H473.148L484.71 124.686L496.138 94.8821H502.457Z"
        fill="black"></path>
    <path
        d="M554.559 122.136H534.998L531.637 131.668H523.637L540.376 84.9474H549.249L565.987 131.668H557.92L554.559 122.136ZM552.408 115.893L544.812 94.2109L537.149 115.893H552.408Z"
        fill="black"></path>
    <path
        d="M591.953 94.0766C594.866 94.0766 597.465 94.6807 599.751 95.889C602.081 97.0973 603.896 98.8874 605.196 101.259C606.495 103.631 607.145 106.495 607.145 109.851V131.668H599.549V110.993C599.549 107.681 598.72 105.153 597.062 103.407C595.403 101.617 593.14 100.722 590.272 100.722C587.404 100.722 585.119 101.617 583.416 103.407C581.757 105.153 580.928 107.681 580.928 110.993V131.668H573.265V94.6807H580.928V98.9097C582.183 97.3882 583.774 96.2023 585.701 95.352C587.673 94.5017 589.757 94.0766 591.953 94.0766Z"
        fill="black"></path>
    <path
        d="M614.366 113.006C614.366 109.292 615.127 106.003 616.651 103.139C618.22 100.275 620.326 98.0595 622.97 96.4932C625.659 94.8821 628.617 94.0766 631.843 94.0766C634.756 94.0766 637.288 94.6584 639.439 95.8219C641.635 96.9407 643.383 98.3503 644.683 100.051V94.6807H652.413V131.668H644.683V126.163C643.383 127.908 641.613 129.363 639.372 130.526C637.131 131.69 634.577 132.272 631.709 132.272C628.527 132.272 625.614 131.466 622.97 129.855C620.326 128.199 618.22 125.917 616.651 123.008C615.127 120.055 614.366 116.721 614.366 113.006ZM644.683 113.141C644.683 110.59 644.145 108.375 643.069 106.495C642.039 104.616 640.672 103.183 638.969 102.199C637.266 101.214 635.429 100.722 633.457 100.722C631.485 100.722 629.647 101.214 627.944 102.199C626.241 103.139 624.852 104.548 623.777 106.428C622.746 108.263 622.231 110.456 622.231 113.006C622.231 115.557 622.746 117.795 623.777 119.719C624.852 121.643 626.241 123.12 627.944 124.149C629.692 125.134 631.53 125.626 633.457 125.626C635.429 125.626 637.266 125.134 638.969 124.149C640.672 123.165 642.039 121.733 643.069 119.853C644.145 117.929 644.683 115.691 644.683 113.141Z"
        fill="black"></path>
    <path d="M670.142 81.9938V131.668H662.479V81.9938H670.142Z" fill="black"></path>
    <path
        d="M713.546 94.6807L690.824 149.053H682.892L690.421 131.063L675.834 94.6807H684.371L694.791 122.874L705.613 94.6807H713.546Z"
        fill="black"></path>
    <path
        d="M728.269 100.924V121.397C728.269 122.784 728.583 123.791 729.21 124.418C729.883 125 731.003 125.291 732.572 125.291H737.277V131.668H731.227C727.776 131.668 725.132 130.862 723.295 129.251C721.457 127.64 720.539 125.022 720.539 121.397V100.924H716.169V94.6807H720.539V85.4844H728.269V94.6807H737.277V100.924H728.269Z"
        fill="black"></path>
    <path
        d="M748.239 89.7805C746.85 89.7805 745.685 89.3106 744.743 88.3708C743.802 87.4311 743.332 86.2675 743.332 84.8802C743.332 83.4929 743.802 82.3294 744.743 81.3896C745.685 80.4499 746.85 79.98 748.239 79.98C749.583 79.98 750.726 80.4499 751.667 81.3896C752.608 82.3294 753.079 83.4929 753.079 84.8802C753.079 86.2675 752.608 87.4311 751.667 88.3708C750.726 89.3106 749.583 89.7805 748.239 89.7805ZM752.003 94.6807V131.668H744.34V94.6807H752.003Z"
        fill="black"></path>
    <path
        d="M759.51 113.141C759.51 109.337 760.272 106.003 761.796 103.139C763.364 100.23 765.515 97.9923 768.249 96.426C770.983 94.8598 774.12 94.0766 777.66 94.0766C782.142 94.0766 785.839 95.1506 788.752 97.2987C791.71 99.402 793.704 102.423 794.735 106.361H786.466C785.794 104.526 784.719 103.094 783.24 102.065C781.761 101.035 779.901 100.521 777.66 100.521C774.523 100.521 772.014 101.64 770.131 103.877C768.294 106.07 767.375 109.158 767.375 113.141C767.375 117.123 768.294 120.234 770.131 122.471C772.014 124.709 774.523 125.828 777.66 125.828C782.097 125.828 785.032 123.881 786.466 119.988H794.735C793.659 123.747 791.643 126.745 788.685 128.983C785.727 131.175 782.052 132.272 777.66 132.272C774.12 132.272 770.983 131.489 768.249 129.922C765.515 128.311 763.364 126.074 761.796 123.21C760.272 120.301 759.51 116.944 759.51 113.141Z"
        fill="black"></path>
    <path
        d="M815.816 132.272C812.903 132.272 810.282 131.757 807.951 130.728C805.666 129.654 803.851 128.222 802.506 126.432C801.162 124.597 800.445 122.561 800.355 120.323H808.287C808.422 121.889 809.161 123.21 810.506 124.284C811.895 125.313 813.62 125.828 815.682 125.828C817.833 125.828 819.491 125.425 820.656 124.619C821.866 123.769 822.471 122.695 822.471 121.397C822.471 120.01 821.799 118.981 820.455 118.309C819.155 117.638 817.071 116.9 814.203 116.094C811.424 115.333 809.161 114.595 807.413 113.879C805.666 113.163 804.142 112.067 802.842 110.59C801.588 109.113 800.96 107.166 800.96 104.75C800.96 102.781 801.543 100.991 802.708 99.3796C803.873 97.7238 805.531 96.426 807.682 95.4863C809.878 94.5465 812.388 94.0766 815.211 94.0766C819.424 94.0766 822.807 95.1506 825.362 97.2987C827.961 99.402 829.35 102.288 829.53 105.958H821.866C821.732 104.302 821.06 102.982 819.85 101.998C818.64 101.013 817.004 100.521 814.942 100.521C812.926 100.521 811.38 100.901 810.304 101.662C809.228 102.423 808.691 103.43 808.691 104.683C808.691 105.667 809.049 106.495 809.766 107.166C810.483 107.838 811.357 108.375 812.388 108.777C813.419 109.135 814.942 109.605 816.959 110.187C819.648 110.903 821.844 111.641 823.547 112.402C825.295 113.118 826.796 114.192 828.051 115.624C829.305 117.056 829.955 118.958 830 121.33C830 123.433 829.417 125.313 828.252 126.969C827.087 128.625 825.429 129.922 823.278 130.862C821.172 131.802 818.684 132.272 815.816 132.272Z"
        fill="black"></path>
    <path
        d="M94.4971 0L0.112586 54.6073V54.6889L0 164.017L0.287719 164.186L23.8557 150.52L23.593 150.369L23.6806 68.3549V68.3109L94.4658 27.3508L95.6792 28.0608V0.684868L94.4971 0Z"
        fill="url(#paint0_linear)"></path>
    <path
        d="M95.6799 0.685059V28.0609L165.17 68.4556V68.5624L165.083 150.37L188.651 164.036L188.763 54.8776V54.8085L95.6799 0.685059Z"
        fill="url(#paint1_linear)"></path>
    <path
        d="M165.083 150.37V150.52L95.6796 190.67L94.2973 191.474L23.8561 150.52L0.288086 164.186L94.266 218.825L95.6796 218.008L188.65 164.218V164.036L165.083 150.37Z"
        fill="url(#paint2_linear)"></path>
    <defs>
        <linearGradient id="paint0_linear" x1="0" y1="82.0935" x2="95.6808" y2="82.0935" gradientUnits="userSpaceOnUse">
            <stop stop-color="#00BAFB"></stop>
            <stop offset="1" stop-color="#005DFB"></stop>
        </linearGradient>
        <linearGradient id="paint1_linear" x1="121.921" y1="25.3207" x2="200.562" y2="134.792"
            gradientUnits="userSpaceOnUse">
            <stop stop-color="#65CE6C"></stop>
            <stop offset="0.0152" stop-color="#64CD6B"></stop>
            <stop offset="0.3825" stop-color="#4BBF59"></stop>
            <stop offset="0.7191" stop-color="#3CB64E"></stop>
            <stop offset="0.9944" stop-color="#37B34A"></stop>
        </linearGradient>
        <linearGradient id="paint2_linear" x1="190.233" y1="184.596" x2="1.87066" y2="184.596"
            gradientUnits="userSpaceOnUse">
            <stop stop-color="#FF5A5A"></stop>
            <stop offset="0.2314" stop-color="#FF4F4F"></stop>
            <stop offset="0.6508" stop-color="#FF4040"></stop>
            <stop offset="1" stop-color="#FF3B3B"></stop>
        </linearGradient>
    </defs>
</svg>